<?xml version="1.0" encoding="UTF-8"?>
<svg version="1.1" xmlns="http://www.w3.org/2000/svg" width="512" height="512">
<path d="M0 0 C0 10.56 0 21.12 0 32 C5.28 32 10.56 32 16 32 C16 21.44 16 10.88 16 0 C23.17980675 0 29.73410657 0.0984858 36.75 1.125 C37.63252441 1.25261719 38.51504883 1.38023438 39.42431641 1.51171875 C52.46524379 3.54086603 65.97790575 6.43605555 78 12 C75.8197371 18.87947032 73.19745965 25.45055898 70.3125 32.0625 C69.89677734 33.02349609 69.48105469 33.98449219 69.05273438 34.97460938 C68.03848513 37.31787486 67.02085998 39.65960887 66 42 C67.01320313 42.29003906 67.01320313 42.29003906 68.046875 42.5859375 C68.93890625 42.84632812 69.8309375 43.10671875 70.75 43.375 C71.63171875 43.63023438 72.5134375 43.88546875 73.421875 44.1484375 C75.76080572 44.9209934 77.83442562 45.83625676 80 47 C80.16943115 46.46632812 80.3388623 45.93265625 80.51342773 45.3828125 C82.4327 39.46830735 84.65311123 33.73067978 87.0625 28 C87.5894043 26.71416016 87.5894043 26.71416016 88.12695312 25.40234375 C88.46791016 24.58894531 88.80886719 23.77554688 89.16015625 22.9375 C89.46574463 22.20402344 89.77133301 21.47054687 90.08618164 20.71484375 C91 19 91 19 93 18 C96.32596598 19.24535263 99.42726737 21.02637674 102.5625 22.6875 C103.50544922 23.18572266 104.44839844 23.68394531 105.41992188 24.19726562 C119.54498167 31.82651235 131.99784484 41.39635683 144 52 C142.48623919 55.56764285 140.39486871 57.83706287 137.6484375 60.546875 C136.37226562 61.81337891 136.37226562 61.81337891 135.0703125 63.10546875 C134.18085938 63.97816406 133.29140625 64.85085937 132.375 65.75 C131.4778125 66.63816406 130.580625 67.52632813 129.65625 68.44140625 C127.44192996 70.63216969 125.22307565 72.81812763 123 75 C123.91122727 76.10865985 124.82926659 77.21172219 125.75 78.3125 C126.26046875 78.92738281 126.7709375 79.54226562 127.296875 80.17578125 C129.23593441 82.35955816 129.23593441 82.35955816 133 85 C139.93 78.07 146.86 71.14 154 64 C159.88267028 66.94133514 163.0661615 71.8504429 167 77 C167.41088867 77.53737793 167.82177734 78.07475586 168.24511719 78.62841797 C175.03864597 87.61109091 180.7395448 97.05010923 186 107 C186.38961914 107.70930664 186.77923828 108.41861328 187.18066406 109.14941406 C187.74479004 110.20854004 187.74479004 110.20854004 188.3203125 111.2890625 C188.66594238 111.9279541 189.01157227 112.5668457 189.36767578 113.22509766 C190 115 190 115 189 118 C186.40795898 119.3503418 186.40795898 119.3503418 182.99609375 120.69921875 C181.78115234 121.18583984 180.56621094 121.67246094 179.31445312 122.17382812 C178.0222294 122.67862606 176.72991041 123.18318021 175.4375 123.6875 C174.14086976 124.20275481 172.84464 124.71901867 171.54882812 125.23632812 C168.36969521 126.50089029 165.18680014 127.75491431 162 129 C162.433125 130.15628906 162.433125 130.15628906 162.875 131.3359375 C163.24625 132.33882812 163.6175 133.34171875 164 134.375 C164.37125 135.37273437 164.7425 136.37046875 165.125 137.3984375 C166 140 166 140 166 142 C166.83249268 141.66677734 167.66498535 141.33355469 168.52270508 140.99023438 C171.61289545 139.75614313 174.70484139 138.52667331 177.7980957 137.30029297 C179.13639426 136.76860679 180.47396703 136.23508993 181.81079102 135.69970703 C183.73265629 134.93039 185.65703716 134.16769846 187.58203125 133.40625 C189.31803589 132.71499023 189.31803589 132.71499023 191.08911133 132.00976562 C194 131 194 131 197 131 C200.93692285 143.28047729 204.39154896 155.50162858 206.4375 168.25 C206.68258301 169.74551392 206.68258301 169.74551392 206.93261719 171.27124023 C207.99536532 178.37733288 208 184.66404025 208 192 C197.44 192 186.88 192 176 192 C176 197.28 176 202.56 176 208 C186.56 208 197.12 208 208 208 C208 216.18672983 207.67307269 223.23566807 206.4375 231.1875 C206.17948608 232.85317017 206.17948608 232.85317017 205.91625977 234.55249023 C204.56642123 242.69929824 202.71273261 250.62593564 200.4375 258.5625 C200.14480225 259.59721436 199.85210449 260.63192871 199.55053711 261.69799805 C199.2644458 262.64457275 198.97835449 263.59114746 198.68359375 264.56640625 C198.43150146 265.40115479 198.17940918 266.23590332 197.91967773 267.09594727 C197.61618408 267.72428467 197.31269043 268.35262207 197 269 C193.07158891 270.30947036 191.84551683 269.3541064 188.08984375 267.7265625 C186.35831055 266.9840625 186.35831055 266.9840625 184.59179688 266.2265625 C182.78291992 265.43378906 182.78291992 265.43378906 180.9375 264.625 C179.72771484 264.10421875 178.51792969 263.5834375 177.27148438 263.046875 C168.6716199 259.33580995 168.6716199 259.33580995 166 258 C165.70996094 259.01320313 165.70996094 259.01320313 165.4140625 260.046875 C165.02347656 261.38492188 165.02347656 261.38492188 164.625 262.75 C164.36976563 263.63171875 164.11453125 264.5134375 163.8515625 265.421875 C163.07732539 267.76589562 162.12668178 269.81171553 161 272 C161.53367187 272.16943115 162.06734375 272.3388623 162.6171875 272.51342773 C168.53169265 274.4327 174.26932022 276.65311123 180 279.0625 C181.28583984 279.5894043 181.28583984 279.5894043 182.59765625 280.12695312 C183.41105469 280.46791016 184.22445313 280.80886719 185.0625 281.16015625 C185.79597656 281.46574463 186.52945312 281.77133301 187.28515625 282.08618164 C189 283 189 283 190 285 C188.80407001 287.71372755 187.55273934 290.31097355 186.1875 292.9375 C185.81818359 293.66646484 185.44886719 294.39542969 185.06835938 295.14648438 C183.49624101 298.22580419 181.92201329 301.11698006 180 304 C177.98914146 304.36914349 177.98914146 304.36914349 175.46957397 304.36076355 C174.51602524 304.36488754 173.5624765 304.36901154 172.58003235 304.3732605 C171.53058945 304.36247467 170.48114655 304.35168884 169.39990234 304.34057617 C167.74623405 304.34123329 167.74623405 304.34123329 166.05915833 304.34190369 C162.40124026 304.33980727 158.74377587 304.31643555 155.0859375 304.29296875 C152.55531057 304.28737584 150.0246804 304.28310431 147.49404907 304.28010559 C141.50518412 304.26980657 135.51651505 304.24614272 129.52772868 304.21605712 C122.71042281 304.18255111 115.89310921 304.1660367 109.07574153 304.15097082 C95.05040355 304.11959406 81.02521073 304.06680989 67 304 C70.3271039 301.31964985 73.69493838 298.77328566 77.1875 296.3125 C100.07072801 279.69528342 115.23459588 257.13624736 123 230 C123.32097656 228.93523437 123.64195312 227.87046875 123.97265625 226.7734375 C131.24502335 197.88691887 125.49147733 165.86647737 110.953125 140.203125 C94.20498315 112.73617237 68.62146952 92.23634595 37.05322266 84.52441406 C29.45059801 82.77300437 21.79536018 81.4162571 14 81 C13.16210938 80.94714844 12.32421875 80.89429687 11.4609375 80.83984375 C-19.51120302 79.83652089 -50.15875658 91.67460228 -72.66796875 112.765625 C-73.43753906 113.50296875 -74.20710938 114.2403125 -75 115 C-75.75925781 115.69609375 -76.51851563 116.3921875 -77.30078125 117.109375 C-98.97157988 137.61990635 -110.03258465 168.20448308 -110.99609375 197.58984375 C-111.41050117 231.2773996 -97.82549525 261.25773203 -74.875 285.5 C-69.34000932 290.9272298 -63.0089829 295.33676326 -56.68823242 299.79248047 C-54.7699903 301.16451598 -52.8867342 302.58494935 -51 304 C-88.29 304 -125.58 304 -164 304 C-173 288 -173 288 -174 283 C-164.79674922 278.62341194 -155.49017352 274.70156146 -146 271 C-146.28875 270.22914063 -146.5775 269.45828125 -146.875 268.6640625 C-147.24625 267.66117187 -147.6175 266.65828125 -148 265.625 C-148.37125 264.62726563 -148.7425 263.62953125 -149.125 262.6015625 C-150 260 -150 260 -150 258 C-150.83249268 258.33322266 -151.66498535 258.66644531 -152.52270508 259.00976562 C-155.61289545 260.24385687 -158.70484139 261.47332669 -161.7980957 262.69970703 C-163.13639426 263.23139321 -164.47396703 263.76491007 -165.81079102 264.30029297 C-167.73265629 265.06961 -169.65703716 265.83230154 -171.58203125 266.59375 C-172.73936768 267.05458984 -173.8967041 267.51542969 -175.08911133 267.99023438 C-178 269 -178 269 -181 269 C-187.47807873 248.89636235 -192 229.20480795 -192 208 C-181.44 208 -170.88 208 -160 208 C-160 202.72 -160 197.44 -160 192 C-170.56 192 -181.12 192 -192 192 C-192 183.72136447 -191.76018198 176.30982875 -190.4375 168.25 C-190.26549072 167.19103516 -190.09348145 166.13207031 -189.91625977 165.04101562 C-188.53502839 157.06344731 -186.66175284 149.28282816 -184.4375 141.5 C-184.14480225 140.46133789 -183.85210449 139.42267578 -183.55053711 138.35253906 C-183.2644458 137.40088867 -182.97835449 136.44923828 -182.68359375 135.46875 C-182.43150146 134.62763672 -182.17940918 133.78652344 -181.91967773 132.91992188 C-181.46443726 131.96956055 -181.46443726 131.96956055 -181 131 C-177.07158891 129.69052964 -175.84551683 130.6458936 -172.08984375 132.2734375 C-170.35831055 133.0159375 -170.35831055 133.0159375 -168.59179688 133.7734375 C-167.38587891 134.30195313 -166.17996094 134.83046875 -164.9375 135.375 C-163.72771484 135.89578125 -162.51792969 136.4165625 -161.27148438 136.953125 C-152.6716199 140.66419005 -152.6716199 140.66419005 -150 142 C-149.70996094 140.98679688 -149.70996094 140.98679688 -149.4140625 139.953125 C-149.15367187 139.06109375 -148.89328125 138.1690625 -148.625 137.25 C-148.36976563 136.36828125 -148.11453125 135.4865625 -147.8515625 134.578125 C-147.07732539 132.23410438 -146.12668178 130.18828447 -145 128 C-145.53367188 127.83056885 -146.06734375 127.6611377 -146.6171875 127.48657227 C-152.53169265 125.5673 -158.26932022 123.34688877 -164 120.9375 C-164.85722656 120.58623047 -165.71445313 120.23496094 -166.59765625 119.87304688 C-167.81775391 119.36161133 -167.81775391 119.36161133 -169.0625 118.83984375 C-169.79597656 118.53425537 -170.52945313 118.22866699 -171.28515625 117.91381836 C-173 117 -173 117 -174 115 C-172.75464737 111.67403402 -170.97362326 108.57273263 -169.3125 105.4375 C-168.81427734 104.49455078 -168.31605469 103.55160156 -167.80273438 102.58007812 C-160.17348765 88.45501833 -150.60364317 76.00215516 -140 64 C-136.43235715 65.51376081 -134.16293713 67.60513129 -131.453125 70.3515625 C-130.60878906 71.20234375 -129.76445312 72.053125 -128.89453125 72.9296875 C-127.58548828 74.26386719 -127.58548828 74.26386719 -126.25 75.625 C-125.36183594 76.5221875 -124.47367187 77.419375 -123.55859375 78.34375 C-121.36783031 80.55807004 -119.18187237 82.77692435 -117 85 C-115.89134015 84.08877273 -114.78827781 83.17073341 -113.6875 82.25 C-113.07261719 81.73953125 -112.45773438 81.2290625 -111.82421875 80.703125 C-109.64044184 78.76406559 -109.64044184 78.76406559 -107 75 C-113.93 68.07 -120.86 61.14 -128 54 C-125.05866486 48.11732972 -120.1495571 44.9338385 -115 41 C-114.46262207 40.58911133 -113.92524414 40.17822266 -113.37158203 39.75488281 C-104.38890909 32.96135403 -94.94989077 27.2604552 -85 22 C-84.29069336 21.61038086 -83.58138672 21.22076172 -82.85058594 20.81933594 C-82.14450195 20.44325195 -81.43841797 20.06716797 -80.7109375 19.6796875 C-80.0720459 19.33405762 -79.4331543 18.98842773 -78.77490234 18.63232422 C-77 18 -77 18 -74 19 C-72.6496582 21.59204102 -72.6496582 21.59204102 -71.30078125 25.00390625 C-70.81416016 26.21884766 -70.32753906 27.43378906 -69.82617188 28.68554688 C-69.32137394 29.9777706 -68.81681979 31.27008959 -68.3125 32.5625 C-67.79724519 33.85913024 -67.28098133 35.15536 -66.76367188 36.45117188 C-65.49910971 39.63030479 -64.24508569 42.81319986 -63 46 C-62.22914063 45.71125 -61.45828125 45.4225 -60.6640625 45.125 C-59.66117188 44.75375 -58.65828125 44.3825 -57.625 44 C-56.62726563 43.62875 -55.62953125 43.2575 -54.6015625 42.875 C-52 42 -52 42 -50 42 C-50.49983398 40.75126099 -50.49983398 40.75126099 -51.00976562 39.47729492 C-52.24385687 36.38710455 -53.47332669 33.29515861 -54.69970703 30.2019043 C-55.23139321 28.86360574 -55.76491007 27.52603297 -56.30029297 26.18920898 C-57.06961 24.26734371 -57.83230154 22.34296284 -58.59375 20.41796875 C-59.28500977 18.68196411 -59.28500977 18.68196411 -59.99023438 16.91088867 C-61 14 -61 14 -61 11 C-48.71952271 7.06307715 -36.49837142 3.60845104 -23.75 1.5625 C-22.75299072 1.39911133 -21.75598145 1.23572266 -20.72875977 1.06738281 C-13.62266712 0.00463468 -7.33595975 0 0 0 Z " fill="#fffff" transform="translate(248,24)"/>
<path d="M0 0 C9.00584891 4.85585306 15.72106868 12.79513125 22.38800049 20.39672852 C24.79357957 23.10420319 27.28819533 25.72709359 29.77539062 28.359375 C34.60468766 33.49564409 39.33288501 38.71553001 44 44 C45.10865985 43.08877273 46.21172219 42.17073341 47.3125 41.25 C47.92738281 40.73953125 48.54226562 40.2290625 49.17578125 39.703125 C51.05932329 37.94461466 52.51573656 36.10080364 54 34 C53.58657349 33.5887941 53.17314697 33.1775882 52.74719238 32.75392151 C48.46210046 28.49087633 44.18047184 24.22437588 39.90087891 19.95581055 C38.30118789 18.36116229 36.70060245 16.76741078 35.09912109 15.17456055 C32.80332987 12.89083749 30.51072737 10.6039561 28.21875 8.31640625 C27.49691528 7.59973282 26.77508057 6.88305939 26.03137207 6.14466858 C25.37068726 5.4840593 24.71000244 4.82345001 24.02929688 4.14282227 C23.14993469 3.266791 23.14993469 3.266791 22.25280762 2.37306213 C21 1 21 1 21 0 C29.88447212 -1.35330091 38.77752874 -2.24397603 47.75 -2.75 C48.74463949 -2.80649719 48.74463949 -2.80649719 49.75937271 -2.86413574 C67.00867346 -3.7288822 80.51345315 -2.0160286 93.71484375 9.796875 C97.92895563 13.66116268 101.85616255 17.75878239 105.6875 22 C106.16313889 22.52614395 106.63877777 23.0522879 107.12882996 23.59437561 C113.03229439 30.17384915 118.63998246 36.96883467 124 44 C125.10865985 43.08877273 126.21172219 42.17073341 127.3125 41.25 C127.92738281 40.73953125 128.54226562 40.2290625 129.17578125 39.703125 C131.05932329 37.94461466 132.51573656 36.10080364 134 34 C133.58657349 33.5887941 133.17314697 33.1775882 132.74719238 32.75392151 C128.46210046 28.49087633 124.18047184 24.22437588 119.90087891 19.95581055 C118.30118789 18.36116229 116.70060245 16.76741078 115.09912109 15.17456055 C112.80332987 12.89083749 110.51072737 10.6039561 108.21875 8.31640625 C107.49691528 7.59973282 106.77508057 6.88305939 106.03137207 6.14466858 C105.37068726 5.4840593 104.71000244 4.82345001 104.02929688 4.14282227 C103.14993469 3.266791 103.14993469 3.266791 102.25280762 2.37306213 C101 1 101 1 101 0 C109.88447212 -1.35330091 118.77752874 -2.24397603 127.75 -2.75 C128.41309299 -2.78766479 129.07618599 -2.82532959 129.75937271 -2.86413574 C147.00867346 -3.7288822 160.51345315 -2.0160286 173.71484375 9.796875 C177.92895563 13.66116268 181.85616255 17.75878239 185.6875 22 C186.16313889 22.52614395 186.63877777 23.0522879 187.12882996 23.59437561 C193.03229439 30.17384915 198.63998246 36.96883467 204 44 C205.10865985 43.08877273 206.21172219 42.17073341 207.3125 41.25 C207.92738281 40.73953125 208.54226563 40.2290625 209.17578125 39.703125 C211.05932329 37.94461466 212.51573656 36.10080364 214 34 C213.58657349 33.5887941 213.17314697 33.1775882 212.74719238 32.75392151 C208.46210046 28.49087633 204.18047184 24.22437588 199.90087891 19.95581055 C198.30118789 18.36116229 196.70060245 16.76741078 195.09912109 15.17456055 C192.80332987 12.89083749 190.51072737 10.6039561 188.21875 8.31640625 C187.49691528 7.59973282 186.77508057 6.88305939 186.03137207 6.14466858 C185.37068726 5.4840593 184.71000244 4.82345001 184.02929688 4.14282227 C183.14993469 3.266791 183.14993469 3.266791 182.25280762 2.37306213 C181 1 181 1 181 0 C189.88447212 -1.35330091 198.77752874 -2.24397603 207.75 -2.75 C208.41309299 -2.78766479 209.07618599 -2.82532959 209.75937271 -2.86413574 C227.00867346 -3.7288822 240.51345315 -2.0160286 253.71484375 9.796875 C257.92895563 13.66116268 261.85616255 17.75878239 265.6875 22 C266.16313889 22.52614395 266.63877777 23.0522879 267.12882996 23.59437561 C273.03229439 30.17384915 278.63998246 36.96883467 284 44 C285.10865985 43.08877273 286.21172219 42.17073341 287.3125 41.25 C288.23482422 40.48429687 288.23482422 40.48429687 289.17578125 39.703125 C291.05932329 37.94461466 292.51573656 36.10080364 294 34 C293.58657349 33.5887941 293.17314697 33.1775882 292.74719238 32.75392151 C288.46210046 28.49087633 284.18047184 24.22437588 279.90087891 19.95581055 C278.30118789 18.36116229 276.70060245 16.76741078 275.09912109 15.17456055 C272.80332987 12.89083749 270.51072737 10.6039561 268.21875 8.31640625 C267.49691528 7.59973282 266.77508057 6.88305939 266.03137207 6.14466858 C265.37068726 5.4840593 264.71000244 4.82345001 264.02929688 4.14282227 C263.44305542 3.55880142 262.85681396 2.97478058 262.25280762 2.37306213 C261 1 261 1 261 0 C269.88447212 -1.35330091 278.77752874 -2.24397603 287.75 -2.75 C288.41309299 -2.78766479 289.07618599 -2.82532959 289.75937271 -2.86413574 C307.00867346 -3.7288822 320.51345315 -2.0160286 333.71484375 9.796875 C337.92895563 13.66116268 341.85616255 17.75878239 345.6875 22 C346.16313889 22.52614395 346.63877777 23.0522879 347.12882996 23.59437561 C353.03229439 30.17384915 358.63998246 36.96883467 364 44 C365.10865985 43.08877273 366.21172219 42.17073341 367.3125 41.25 C368.23482422 40.48429687 368.23482422 40.48429687 369.17578125 39.703125 C371.05932329 37.94461466 372.51573656 36.10080364 374 34 C373.58657349 33.5887941 373.17314697 33.1775882 372.74719238 32.75392151 C368.46210046 28.49087633 364.18047184 24.22437588 359.90087891 19.95581055 C358.30118789 18.36116229 356.70060245 16.76741078 355.09912109 15.17456055 C352.80332987 12.89083749 350.51072737 10.6039561 348.21875 8.31640625 C347.49691528 7.59973282 346.77508057 6.88305939 346.03137207 6.14466858 C345.37068726 5.4840593 344.71000244 4.82345001 344.02929688 4.14282227 C343.44305542 3.55880142 342.85681396 2.97478058 342.25280762 2.37306213 C341 1 341 1 341 0 C348.68473708 -0.09300645 356.36941521 -0.16391952 364.05458832 -0.20724869 C367.62383519 -0.22805315 371.19269474 -0.25623769 374.76171875 -0.30175781 C378.21120466 -0.345474 381.66031992 -0.36919071 385.11006165 -0.37950897 C387.05539182 -0.39041005 389.00057452 -0.42159466 390.94567871 -0.45318604 C399.23555476 -0.45527206 404.83160327 0.34720635 411.2421875 5.96484375 C411.78101563 6.61582031 412.31984375 7.26679688 412.875 7.9375 C413.42929687 8.58589844 413.98359375 9.23429687 414.5546875 9.90234375 C418.46246992 15.57390905 418.29658455 20.86854191 418.29052734 27.53833008 C418.29724457 28.59910263 418.30396179 29.65987518 418.31088257 30.75279236 C418.32987519 34.25841969 418.3337875 37.76385567 418.3359375 41.26953125 C418.34236477 43.70944802 418.34909308 46.14936402 418.35610962 48.58927917 C418.36808572 53.70447577 418.37179011 58.81960482 418.37060547 63.93481445 C418.37040232 70.48183957 418.39769955 77.02843043 418.43214989 83.57535267 C418.45441358 88.61547323 418.45844315 93.65548922 418.45738602 98.69565392 C418.45974295 101.10892927 418.46857163 103.52220747 418.48405075 105.93543434 C418.5036981 109.31509213 418.49787664 112.69381268 418.48583984 116.07348633 C418.49707886 117.06545013 418.50831787 118.05741394 418.51989746 119.07943726 C418.45413511 126.36457206 416.88119673 131.71211347 412.03515625 137.2421875 C411.38417969 137.78101563 410.73320312 138.31984375 410.0625 138.875 C409.41410156 139.42929687 408.76570313 139.98359375 408.09765625 140.5546875 C403.79805224 143.51717071 400.10200163 144.24885053 394.92456055 144.22705078 C393.12325935 144.22682419 393.12325935 144.22682419 391.28556824 144.22659302 C389.35563774 144.21110916 389.35563774 144.21110916 387.38671875 144.1953125 C386.04865226 144.19157912 384.71058303 144.18873368 383.37251282 144.18673706 C379.86258301 144.17912616 376.35282055 144.15949982 372.84295654 144.1373291 C369.25665551 144.11681564 365.67032726 144.10772362 362.08398438 144.09765625 C355.05592115 144.07625129 348.02796862 144.04214631 341 144 C344.96372525 139.24914133 349.09794782 134.76386888 353.4921875 130.41015625 C354.08299103 129.82076767 354.67379456 129.23137909 355.28250122 128.62413025 C357.14430404 126.76786273 359.00957745 124.91512915 360.875 123.0625 C362.14867011 121.79385328 363.42210971 120.5249751 364.6953125 119.25585938 C367.79422043 116.16789446 370.89624301 113.08309071 374 110 C373.08877273 108.89134015 372.17073341 107.78827781 371.25 106.6875 C370.73953125 106.07261719 370.2290625 105.45773437 369.703125 104.82421875 C367.94461466 102.94067671 366.10080364 101.48426344 364 100 C363.57978073 100.55123535 363.15956146 101.1024707 362.72660828 101.67041016 C357.31018975 108.68345935 351.62786529 115.42886513 345.6875 122 C345.21540604 122.52259903 344.74331207 123.04519806 344.25691223 123.58363342 C331.8613121 137.1431335 320.74097994 146.1165952 301.89998436 147.01972961 C297.17031804 147.16364659 292.4726227 147.01825289 287.75 146.75 C286.74823038 146.69350281 286.74823038 146.69350281 285.72622299 146.63586426 C277.43236091 146.133205 269.21313377 145.25104129 261 144 C264.96372525 139.24914133 269.09794782 134.76386888 273.4921875 130.41015625 C274.08299103 129.82076767 274.67379456 129.23137909 275.28250122 128.62413025 C277.14430404 126.76786273 279.00957745 124.91512915 280.875 123.0625 C282.14867011 121.79385328 283.42210971 120.5249751 284.6953125 119.25585938 C287.79422043 116.16789446 290.89624301 113.08309071 294 110 C293.08877273 108.89134015 292.17073341 107.78827781 291.25 106.6875 C290.73953125 106.07261719 290.2290625 105.45773437 289.703125 104.82421875 C287.94461466 102.94067671 286.10080364 101.48426344 284 100 C283.57978073 100.55123535 283.15956146 101.1024707 282.72660828 101.67041016 C277.31018975 108.68345935 271.62786529 115.42886513 265.6875 122 C265.21540604 122.52259903 264.74331207 123.04519806 264.25691223 123.58363342 C251.8613121 137.1431335 240.74097994 146.1165952 221.89998436 147.01972961 C217.17031804 147.16364659 212.4726227 147.01825289 207.75 146.75 C206.74823038 146.69350281 206.74823038 146.69350281 205.72622299 146.63586426 C197.43236091 146.133205 189.21313377 145.25104129 181 144 C184.96372525 139.24914133 189.09794782 134.76386888 193.4921875 130.41015625 C194.37839279 129.52607338 194.37839279 129.52607338 195.28250122 128.62413025 C197.14430404 126.76786273 199.00957745 124.91512915 200.875 123.0625 C202.14867011 121.79385328 203.42210971 120.5249751 204.6953125 119.25585938 C207.79422043 116.16789446 210.89624301 113.08309071 214 110 C213.08877273 108.89134015 212.17073341 107.78827781 211.25 106.6875 C210.73953125 106.07261719 210.2290625 105.45773437 209.703125 104.82421875 C207.94461466 102.94067671 206.10080364 101.48426344 204 100 C203.3696711 100.82685303 203.3696711 100.82685303 202.72660828 101.67041016 C197.31018975 108.68345935 191.62786529 115.42886513 185.6875 122 C184.97935905 122.78389854 184.97935905 122.78389854 184.25691223 123.58363342 C171.8613121 137.1431335 160.74097994 146.1165952 141.89998436 147.01972961 C137.17031804 147.16364659 132.4726227 147.01825289 127.75 146.75 C126.74823038 146.69350281 126.74823038 146.69350281 125.72622299 146.63586426 C117.43236091 146.133205 109.21313377 145.25104129 101 144 C104.96372525 139.24914133 109.09794782 134.76386888 113.4921875 130.41015625 C114.37839279 129.52607338 114.37839279 129.52607338 115.28250122 128.62413025 C117.14430404 126.76786273 119.00957745 124.91512915 120.875 123.0625 C122.14867011 121.79385328 123.42210971 120.5249751 124.6953125 119.25585938 C127.79422043 116.16789446 130.89624301 113.08309071 134 110 C133.08877273 108.89134015 132.17073341 107.78827781 131.25 106.6875 C130.73953125 106.07261719 130.2290625 105.45773437 129.703125 104.82421875 C127.94461466 102.94067671 126.10080364 101.48426344 124 100 C123.3696711 100.82685303 123.3696711 100.82685303 122.72660828 101.67041016 C117.31018975 108.68345935 111.62786529 115.42886513 105.6875 122 C104.97935905 122.78389854 104.97935905 122.78389854 104.25691223 123.58363342 C91.8613121 137.1431335 80.74097994 146.1165952 61.89998436 147.01972961 C57.17031804 147.16364659 52.4726227 147.01825289 47.75 146.75 C46.74823038 146.69350281 46.74823038 146.69350281 45.72622299 146.63586426 C37.43236091 146.133205 29.21313377 145.25104129 21 144 C24.96372525 139.24914133 29.09794782 134.76386888 33.4921875 130.41015625 C34.08299103 129.82076767 34.67379456 129.23137909 35.28250122 128.62413025 C37.14430404 126.76786273 39.00957745 124.91512915 40.875 123.0625 C42.14867011 121.79385328 43.42210971 120.5249751 44.6953125 119.25585938 C47.79422043 116.16789446 50.89624301 113.08309071 54 110 C53.08877273 108.89134015 52.17073341 107.78827781 51.25 106.6875 C50.73953125 106.07261719 50.2290625 105.45773437 49.703125 104.82421875 C47.94461466 102.94067671 46.10080364 101.48426344 44 100 C43.51316238 100.55123535 43.02632477 101.1024707 42.5247345 101.67041016 C37.85765036 106.92556429 33.11856359 112.10243399 28.29189014 117.21066284 C25.81357539 119.83867355 23.36853241 122.48527463 20.98657227 125.20117188 C4.48902128 143.94622001 4.48902128 143.94622001 -7.67822266 145.515625 C-18.94408162 146.02607857 -30.37667835 145.80406061 -39.2421875 138.03515625 C-40.05042969 137.05869141 -40.05042969 137.05869141 -40.875 136.0625 C-41.42929687 135.41410156 -41.98359375 134.76570312 -42.5546875 134.09765625 C-46.46246992 128.42609095 -46.29658455 123.13145809 -46.29052734 116.46166992 C-46.29724457 115.40089737 -46.30396179 114.34012482 -46.31088257 113.24720764 C-46.32987519 109.74158031 -46.3337875 106.23614433 -46.3359375 102.73046875 C-46.34236477 100.29055198 -46.34909308 97.85063598 -46.35610962 95.41072083 C-46.36808572 90.29552423 -46.37179011 85.18039518 -46.37060547 80.06518555 C-46.37040232 73.51816043 -46.39769955 66.97156957 -46.43214989 60.42464733 C-46.45441358 55.38452677 -46.45844315 50.34451078 -46.45738602 45.30434608 C-46.45974295 42.89107073 -46.46857163 40.47779253 -46.48405075 38.06456566 C-46.5036981 34.68490787 -46.49787664 31.30618732 -46.48583984 27.92651367 C-46.49707886 26.93454987 -46.50831787 25.94258606 -46.51989746 24.92056274 C-46.45413511 17.63542794 -44.88119673 12.28788653 -40.03515625 6.7578125 C-39.38417969 6.21898437 -38.73320313 5.68015625 -38.0625 5.125 C-37.41410156 4.57070313 -36.76570313 4.01640625 -36.09765625 3.4453125 C-26.40550671 -3.23270488 -10.98915733 -2.82340093 0 0 Z M-30 64 C-30 69.28 -30 74.56 -30 80 C112.56 80 255.12 80 402 80 C402 74.72 402 69.44 402 64 C259.44 64 116.88 64 -30 64 Z " fill="#000000" transform="translate(70,344)"/>
<path d="M0 0 C1.15757812 -0.00128906 2.31515625 -0.00257812 3.5078125 -0.00390625 C4.72210938 -0.00003906 5.93640625 0.00382812 7.1875 0.0078125 C9.00894531 0.00201172 9.00894531 0.00201172 10.8671875 -0.00390625 C12.60355469 -0.00197266 12.60355469 -0.00197266 14.375 0 C15.44105469 0.00112793 16.50710938 0.00225586 17.60546875 0.00341797 C20.1875 0.1328125 20.1875 0.1328125 22.1875 1.1328125 C21.70950865 4.50798003 21.2298961 7.88291531 20.75 11.2578125 C20.54793945 12.68480469 20.54793945 12.68480469 20.34179688 14.140625 C19.80122797 17.93779196 19.25698069 21.72719553 18.609375 25.5078125 C17.53417504 32.1979456 17.34646057 38.35883379 20.79296875 44.375 C24.17568911 48.63893323 28.49369807 50.64007012 33.625 52.1328125 C38.25538412 52.1328125 41.94755069 50.91186702 46.1875 49.1328125 C46.89519531 48.85050781 47.60289062 48.56820312 48.33203125 48.27734375 C50.64717706 46.84926434 50.99655171 45.55108853 52.1875 43.1328125 C53.1069242 41.87979783 54.06395585 40.65377576 55.05078125 39.453125 C55.60830078 38.77121094 56.16582031 38.08929688 56.74023438 37.38671875 C57.61131836 36.33291016 57.61131836 36.33291016 58.5 35.2578125 C59.06912109 34.56300781 59.63824219 33.86820313 60.22460938 33.15234375 C63.52477811 29.12848704 66.85101461 25.12657926 70.1875 21.1328125 C78.0164829 26.57256901 85.49734526 32.71420667 90.1875 41.1328125 C84.98818599 45.93323734 79.60906858 50.38981723 74 54.6953125 C65.46096544 61.10250379 65.46096544 61.10250379 60.1875 70.1328125 C59.44813847 76.67088091 59.60119775 82.05207452 63.5859375 87.47265625 C67.00766081 91.01956456 70.60155991 92.89229111 75.54199219 93.35180664 C83.11982317 93.36261564 90.35333464 92.34434131 97.8125 91.0703125 C100.13719142 90.67863875 102.46267727 90.29164059 104.7890625 89.91015625 C105.80307129 89.73734131 106.81708008 89.56452637 107.86181641 89.38647461 C108.62929199 89.30276611 109.39676758 89.21905762 110.1875 89.1328125 C113.10735259 92.05266509 112.1168128 100.90850564 112.1875 105.1328125 C112.00809359 109.48669977 111.66224383 113.80168804 111.1875 118.1328125 C107.80571915 119.24408211 105.37468316 119.00783506 101.8984375 118.35546875 C100.87363281 118.17177734 99.84882813 117.98808594 98.79296875 117.79882812 C96.6626751 117.40084703 94.53246478 117.00241962 92.40234375 116.60351562 C79.34380525 114.11547826 79.34380525 114.11547826 66.94921875 117.75390625 C62.79369505 121.00645584 60.55340686 124.65238619 59.78125 129.88671875 C59.55966915 136.67263234 60.65479602 141.39390608 65.39453125 146.51953125 C71.29804764 151.73268141 77.31372407 156.70824952 83.59106445 161.46557617 C86.32719487 163.55823004 88.25757487 165.2379248 90.1875 168.1328125 C75.42533563 184.76953742 75.42533563 184.76953742 70.1875 187.1328125 C65.92189723 182.51276136 61.87236679 177.78210362 58.0456543 172.79443359 C49.85035242 161.588208 49.85035242 161.588208 37.5234375 156.18359375 C32.1612907 156.06702534 27.80832945 158.14622066 23.3125 160.8828125 C18.52110441 165.95605489 17.93626578 170.59344017 18.01635742 177.26611328 C18.32386716 182.41701111 19.30141288 187.44241987 20.25 192.5078125 C20.6442977 194.61838984 21.0313374 196.73033956 21.41015625 198.84375 C21.58297119 199.76462402 21.75578613 200.68549805 21.93383789 201.63427734 C22.1875 204.1328125 22.1875 204.1328125 21.1875 208.1328125 C11.9475 208.1328125 2.7075 208.1328125 -6.8125 208.1328125 C-7.78907792 204.22650082 -7.75168541 202.6618984 -7.03515625 198.84375 C-6.85146484 197.81894531 -6.66777344 196.79414063 -6.47851562 195.73828125 C-6.08053453 193.6079876 -5.68210712 191.47777728 -5.28320312 189.34765625 C-2.80963328 176.29477768 -2.80963328 176.29477768 -6.41796875 163.890625 C-9.80068911 159.62669177 -14.11869807 157.62555488 -19.25 156.1328125 C-23.89351277 156.1328125 -27.53105214 157.45674183 -31.8125 159.1328125 C-32.8025 159.4628125 -33.7925 159.7928125 -34.8125 160.1328125 C-35.52786758 161.44066243 -36.18860269 162.77893866 -36.8125 164.1328125 C-37.80344198 165.4602594 -38.83404859 166.7586708 -39.89453125 168.03125 C-40.49716797 168.75828125 -41.09980469 169.4853125 -41.72070312 170.234375 C-42.34912109 170.98460937 -42.97753906 171.73484375 -43.625 172.5078125 C-44.55022461 173.6215625 -44.55022461 173.6215625 -45.49414062 174.7578125 C-47.26320297 176.88595126 -49.03722479 179.00985576 -50.8125 181.1328125 C-51.79581447 182.31229867 -52.77891845 183.49196037 -53.76171875 184.671875 C-54.43847656 185.48398437 -55.11523438 186.29609375 -55.8125 187.1328125 C-63.6414829 181.69305599 -71.12234526 175.55141833 -75.8125 167.1328125 C-70.61318599 162.33238766 -65.23406858 157.87580777 -59.625 153.5703125 C-51.08596544 147.16312121 -51.08596544 147.16312121 -45.8125 138.1328125 C-45.24185774 132.25800369 -44.9646428 126.64100951 -48.4375 121.63671875 C-51.83708022 117.91842789 -55.27576375 115.4018058 -60.39575195 114.85888672 C-68.25685246 114.90344848 -75.76060053 115.86366114 -83.5 117.1953125 C-85.81558039 117.58694596 -88.13195153 117.97394295 -90.44921875 118.35546875 C-91.45686279 118.52828369 -92.46450684 118.70109863 -93.50268555 118.87915039 C-94.26492432 118.96285889 -95.02716309 119.04656738 -95.8125 119.1328125 C-96.8125 118.1328125 -96.8125 118.1328125 -96.92602539 115.44897461 C-96.92078857 114.28116455 -96.91555176 113.11335449 -96.91015625 111.91015625 C-96.90693359 110.65009766 -96.90371094 109.39003906 -96.90039062 108.09179688 C-96.89203403 106.75130141 -96.88356907 105.41080662 -96.875 104.0703125 C-96.8699866 102.72591308 -96.86542342 101.3815119 -96.86132812 100.03710938 C-96.84949488 96.73563309 -96.83300971 93.43424447 -96.8125 90.1328125 C-93.43997717 89.02604183 -91.02432962 89.25523567 -87.55859375 89.91015625 C-86.53830078 90.09384766 -85.51800781 90.27753906 -84.46679688 90.46679688 C-82.34938725 90.86405223 -80.2321933 91.26245919 -78.11523438 91.66210938 C-65.46973376 94.16363728 -65.46973376 94.16363728 -53.375 91.0703125 C-49.6767177 88.34406333 -47.13558942 85.58471715 -45.8125 81.1328125 C-44.98628971 74.60860018 -45.37926779 69.84982472 -48.8125 64.1328125 C-54.85029469 57.60344514 -62.14170209 52.1614042 -69.21606445 46.80004883 C-71.95219487 44.70739496 -73.88257487 43.0277002 -75.8125 40.1328125 C-69.79598207 33.39740915 -63.83787494 26.84973652 -56.8125 21.1328125 C-52.58356779 24.22084573 -49.6750795 27.62432036 -46.5625 31.7578125 C-45.59328672 33.00817286 -44.6219091 34.25685836 -43.6484375 35.50390625 C-43.16987305 36.11733887 -42.69130859 36.73077148 -42.19824219 37.36279297 C-35.21117069 46.77023569 -35.21117069 46.77023569 -25.07421875 51.93359375 C-19.64214048 52.41206697 -15.32294167 50.87378388 -10.5 48.5078125 C-6.54795032 45.01530348 -4.14510936 41.29543815 -3.58349609 35.95532227 C-3.59076937 29.04789041 -4.5765066 22.48074925 -5.8125 15.6953125 C-6.18952952 13.57197395 -6.56462223 11.44829031 -6.9375 9.32421875 C-7.10507813 8.39810791 -7.27265625 7.47199707 -7.4453125 6.51782227 C-7.8125 4.1328125 -7.8125 4.1328125 -7.8125 1.1328125 C-5.11984639 -0.2135143 -3.01135751 0.00318614 0 0 Z M-21.5625 76.2578125 C-30.12372351 85.32621749 -32.30851257 96.05782349 -32.08984375 108.01171875 C-31.58182245 119.03401178 -25.91085909 127.36935404 -18.1875 134.8203125 C-8.73853046 142.57878844 1.36746547 144.3586278 13.23095703 143.37207031 C23.95273668 142.06094677 32.18820904 135.96729477 39 127.8828125 C46.18777609 117.92022053 47.74485719 107.12678729 46.1875 95.1328125 C43.55519169 84.09736612 36.54142363 75.58183266 27 69.6328125 C10.4239479 60.5936443 -7.60312982 63.78865831 -21.5625 76.2578125 Z " fill="#000000" transform="translate(248.8125,119.8671875)"/>
<path d="M0 0 C6.94081222 -0.64867404 13.67827137 0.79232555 20.5 2 C21.60859375 2.19078125 22.7171875 2.3815625 23.859375 2.578125 C26.57400201 3.04616414 29.28742095 3.52025883 32 4 C30.93912251 9.62771003 29.57480479 14.45634745 26.875 19.5625 C26.33617187 20.59503906 25.79734375 21.62757813 25.2421875 22.69140625 C24.83226562 23.45324219 24.42234375 24.21507812 24 25 C20.42116703 23.72267986 17.79705163 22.26080998 14.8984375 19.8125 C14.16109375 19.19632812 13.42375 18.58015625 12.6640625 17.9453125 C11.90867187 17.30335938 11.15328125 16.66140625 10.375 16 C8.86293655 14.7280277 7.34995304 13.45714812 5.8359375 12.1875 C5.17126465 11.62417969 4.5065918 11.06085938 3.82177734 10.48046875 C1.85918479 8.83804321 1.85918479 8.83804321 -1 7 C-1.8125 5.0625 -1.8125 5.0625 -2 3 C-1.34 2.01 -0.68 1.02 0 0 Z " fill="#000000" transform="translate(324,249)"/>
<path d="M0 0 C1.125 1.75 1.125 1.75 2 4 C0.69659862 8.42773117 -3.10398942 10.71946619 -6.625 13.375 C-7.25510986 13.85743164 -7.88521973 14.33986328 -8.53442383 14.83691406 C-9.78484178 15.79301201 -11.03747703 16.74621816 -12.29248047 17.69628906 C-13.74419517 18.80469005 -15.1735069 19.94233487 -16.59765625 21.0859375 C-17.28730469 21.63507813 -17.97695312 22.18421875 -18.6875 22.75 C-19.26886719 23.21921875 -19.85023438 23.6884375 -20.44921875 24.171875 C-20.96097656 24.44515625 -21.47273437 24.7184375 -22 25 C-25 24 -25 24 -26.5703125 21.05078125 C-27.09984185 19.80944738 -27.61763809 18.56305787 -28.125 17.3125 C-28.38925781 16.69955078 -28.65351563 16.08660156 -28.92578125 15.45507812 C-30.51192513 11.65879975 -31.48634804 8.07789542 -32 4 C-28.16852166 3.3223726 -24.33456759 2.65990233 -20.5 2 C-18.88351563 1.71382812 -18.88351563 1.71382812 -17.234375 1.421875 C-11.39841946 0.42549235 -5.91994598 -0.22990081 0 0 Z " fill="#000000" transform="translate(188,249)"/>
<path d="M0 0 C3 1 3 1 4.5703125 3.94921875 C5.09984185 5.19055262 5.61763809 6.43694213 6.125 7.6875 C6.38925781 8.30044922 6.65351563 8.91339844 6.92578125 9.54492188 C8.51192513 13.34120025 9.48634804 16.92210458 10 21 C6.16852166 21.6776274 2.33456759 22.34009767 -1.5 23 C-2.57765625 23.19078125 -3.6553125 23.3815625 -4.765625 23.578125 C-10.60158054 24.57450765 -16.08005402 25.22990081 -22 25 C-23.125 23.25 -23.125 23.25 -24 21 C-22.69659862 16.57226883 -18.89601058 14.28053381 -15.375 11.625 C-14.74489014 11.14256836 -14.11478027 10.66013672 -13.46557617 10.16308594 C-12.21515822 9.20698799 -10.96252297 8.25378184 -9.70751953 7.30371094 C-8.25580483 6.19530995 -6.8264931 5.05766513 -5.40234375 3.9140625 C-4.36787109 3.09035156 -4.36787109 3.09035156 -3.3125 2.25 C-2.73113281 1.78078125 -2.14976562 1.3115625 -1.55078125 0.828125 C-0.78314453 0.41820312 -0.78314453 0.41820312 0 0 Z " fill="#000000" transform="translate(346,174)"/>
<path d="M0 0 C5.12660614 0.81953914 6.9093558 4.08598545 9.91015625 8.09765625 C10.73676758 9.15436523 10.73676758 9.15436523 11.58007812 10.23242188 C13.19713533 12.31368767 14.77344565 14.42138759 16.34765625 16.53515625 C17.11505127 17.51718018 17.11505127 17.51718018 17.89794922 18.51904297 C19.12805048 20.13299357 20.2489213 21.82905919 21.34765625 23.53515625 C20.34765625 26.53515625 20.34765625 26.53515625 17.3984375 28.10546875 C16.15710363 28.6349981 14.91071412 29.15279434 13.66015625 29.66015625 C13.04720703 29.92441406 12.43425781 30.18867188 11.80273438 30.4609375 C8.006456 32.04708138 4.42555167 33.02150429 0.34765625 33.53515625 C-0.32997115 29.70367791 -0.99244142 25.86972384 -1.65234375 22.03515625 C-1.843125 20.9575 -2.03390625 19.87984375 -2.23046875 18.76953125 C-3.22463168 12.94657692 -3.9900321 7.44470244 -3.65234375 1.53515625 C-2.65234375 0.53515625 -2.65234375 0.53515625 0 0 Z " fill="#000000" transform="translate(284.65234375,290.46484375)"/>
<path d="M0 0 C3.0625 -0.25 3.0625 -0.25 6 0 C7 1 7 1 7.1875 4.28125 C7.11466667 10.10791633 6.01322101 15.77667049 5 21.5 C4.71382812 23.16289062 4.71382812 23.16289062 4.421875 24.859375 C3.95383586 27.57400201 3.47974117 30.28742095 3 33 C-2.62771003 31.93912251 -7.45634745 30.57480479 -12.5625 27.875 C-13.59503906 27.33617187 -14.62757813 26.79734375 -15.69140625 26.2421875 C-16.45324219 25.83226562 -17.21507812 25.42234375 -18 25 C-16.72267986 21.42116703 -15.26080998 18.79705163 -12.8125 15.8984375 C-12.19632813 15.16109375 -11.58015625 14.42375 -10.9453125 13.6640625 C-10.30335938 12.90867187 -9.66140625 12.15328125 -9 11.375 C-7.7280277 9.86293655 -6.45714812 8.34995304 -5.1875 6.8359375 C-4.62417969 6.17126465 -4.06085938 5.5065918 -3.48046875 4.82177734 C-1.83804321 2.85918479 -1.83804321 2.85918479 0 0 Z " fill="#000000" transform="translate(224,291)"/>
<path d="M0 0 C3.57883297 1.27732014 6.20294837 2.73919002 9.1015625 5.1875 C9.83890625 5.80367187 10.57625 6.41984375 11.3359375 7.0546875 C12.09132812 7.69664062 12.84671875 8.33859375 13.625 9 C15.13706345 10.2719723 16.65004696 11.54285188 18.1640625 12.8125 C19.16107178 13.65748047 19.16107178 13.65748047 20.17822266 14.51953125 C22.14081521 16.16195679 22.14081521 16.16195679 25 18 C25.25 21.0625 25.25 21.0625 25 24 C24 25 24 25 20.71875 25.1875 C14.89208367 25.11466667 9.22332951 24.01322101 3.5 23 C1.83710938 22.71382812 1.83710938 22.71382812 0.140625 22.421875 C-2.57400201 21.95383586 -5.28742095 21.47974117 -8 21 C-6.93912251 15.37228997 -5.57480479 10.54365255 -2.875 5.4375 C-2.06675781 3.88869141 -2.06675781 3.88869141 -1.2421875 2.30859375 C-0.62730469 1.16583984 -0.62730469 1.16583984 0 0 Z " fill="#000000" transform="translate(164,174)"/>
<path d="M0 0 C0.6776274 3.83147834 1.34009767 7.66543241 2 11.5 C2.19078125 12.57765625 2.3815625 13.6553125 2.578125 14.765625 C3.57228793 20.58857933 4.33768835 26.09045381 4 32 C3 33 3 33 0.34765625 33.53515625 C-4.77894989 32.71561711 -6.56169955 29.4491708 -9.5625 25.4375 C-10.11357422 24.73302734 -10.66464844 24.02855469 -11.23242188 23.30273438 C-12.84947908 21.22146858 -14.4257894 19.11376866 -16 17 C-16.76739502 16.01797607 -16.76739502 16.01797607 -17.55029297 15.01611328 C-18.78039423 13.40216268 -19.90126505 11.70609706 -21 10 C-20 7 -20 7 -16.9453125 5.4296875 C-15.6764591 4.90033357 -14.40274099 4.38252586 -13.125 3.875 C-12.48691406 3.61074219 -11.84882813 3.34648438 -11.19140625 3.07421875 C-3.71652919 0 -3.71652919 0 0 0 Z " fill="#000000" transform="translate(227,124)"/>
<path d="M0 0 C5.62771003 1.06087749 10.45634745 2.42519521 15.5625 5.125 C17.11130859 5.93324219 17.11130859 5.93324219 18.69140625 6.7578125 C19.45324219 7.16773438 20.21507812 7.57765625 21 8 C19.72267986 11.57883297 18.26080998 14.20294837 15.8125 17.1015625 C15.19632812 17.83890625 14.58015625 18.57625 13.9453125 19.3359375 C13.30335938 20.09132812 12.66140625 20.84671875 12 21.625 C10.7280277 23.13706345 9.45714812 24.65004696 8.1875 26.1640625 C7.62417969 26.82873535 7.06085938 27.4934082 6.48046875 28.17822266 C4.83804321 30.14081521 4.83804321 30.14081521 3 33 C-0.0625 33.25 -0.0625 33.25 -3 33 C-4 32 -4 32 -4.1875 28.71875 C-4.11466667 22.89208367 -3.01322101 17.22332951 -2 11.5 C-1.80921875 10.39140625 -1.6184375 9.2828125 -1.421875 8.140625 C-0.95383586 5.42599799 -0.47974117 2.71257905 0 0 Z " fill="#000000" transform="translate(285,124)"/>
</svg>
